<?xml version="1.0" encoding="UTF-8" standalone="no"?>
<!DOCTYPE svg PUBLIC "-//W3C//DTD SVG 1.1//EN"
 "http://www.w3.org/Graphics/SVG/1.1/DTD/svg11.dtd">
<!-- Generated by graphviz version 2.40.1 (20161225.0304)
 -->
<!-- Title: G Pages: 1 -->
<svg width="243pt" height="54pt"
 viewBox="0.00 0.00 242.69 53.90" xmlns="http://www.w3.org/2000/svg" xmlns:xlink="http://www.w3.org/1999/xlink">
<g id="graph0" class="graph" transform="scale(1 1) rotate(0) translate(4 49.9006)">
<title>G</title>
<polygon fill="#ffffff" stroke="transparent" points="-4,4 -4,-49.9006 238.6867,-49.9006 238.6867,4 -4,4"/>
<!-- null -->
<g id="node1" class="node">
<title>null</title>
</g>
<!-- q0 -->
<g id="node2" class="node">
<title>q0</title>
<ellipse fill="none" stroke="#000000" cx="118" cy="-22.9503" rx="27" ry="18"/>
<text text-anchor="start" x="111" y="-19.7503" font-family="Times,serif" font-size="14.00" fill="#000000">q</text>
<text text-anchor="start" x="118" y="-19.7503" font-family="Times,serif" baseline-shift="sub" font-size="14.00" fill="#000000">0</text>
</g>
<!-- null&#45;&gt;q0 -->
<g id="edge1" class="edge">
<title>null&#45;&gt;q0</title>
<path fill="none" stroke="#000000" d="M54.303,-22.9503C62.5813,-22.9503 71.8217,-22.9503 80.6405,-22.9503"/>
<polygon fill="#000000" stroke="#000000" points="80.7163,-26.4504 90.7163,-22.9503 80.7162,-19.4504 80.7163,-26.4504"/>
</g>
<!-- q1 -->
<g id="node3" class="node">
<title>q1</title>
<ellipse fill="none" stroke="#000000" cx="211.7364" cy="-22.9503" rx="18.9093" ry="18.9093"/>
<ellipse fill="none" stroke="#000000" cx="211.7364" cy="-22.9503" rx="22.9007" ry="22.9007"/>
<text text-anchor="start" x="204.7364" y="-19.7503" font-family="Times,serif" font-size="14.00" fill="#000000">q</text>
<text text-anchor="start" x="211.7364" y="-19.7503" font-family="Times,serif" baseline-shift="sub" font-size="14.00" fill="#000000">1</text>
</g>
<!-- q0&#45;&gt;q1 -->
<g id="edge2" class="edge">
<title>q0&#45;&gt;q1</title>
<path fill="none" stroke="#000000" d="M145.1125,-22.9503C155.5201,-22.9503 167.5187,-22.9503 178.441,-22.9503"/>
<polygon fill="#000000" stroke="#000000" points="178.496,-26.4504 188.496,-22.9503 178.496,-19.4504 178.496,-26.4504"/>
<text text-anchor="middle" x="166.8931" y="-25.7503" font-family="Times,serif" font-size="14.00" fill="#000000">σ</text>
</g>
</g>
</svg>
