<?xml version="1.0" encoding="UTF-8" standalone="no"?>
<!DOCTYPE svg PUBLIC "-//W3C//DTD SVG 1.1//EN"
 "http://www.w3.org/Graphics/SVG/1.1/DTD/svg11.dtd">
<!-- Generated by graphviz version 2.40.1 (20161225.0304)
 -->
<!-- Title: G Pages: 1 -->
<svg width="541pt" height="163pt"
 viewBox="0.00 0.00 541.18 163.00" xmlns="http://www.w3.org/2000/svg" xmlns:xlink="http://www.w3.org/1999/xlink">
<g id="graph0" class="graph" transform="scale(1 1) rotate(0) translate(4 159)">
<title>G</title>
<polygon fill="#ffffff" stroke="transparent" points="-4,4 -4,-159 537.1821,-159 537.1821,4 -4,4"/>
<!-- null -->
<g id="node1" class="node">
<title>null</title>
</g>
<!-- qstart -->
<g id="node2" class="node">
<title>qstart</title>
<ellipse fill="none" stroke="#000000" cx="120.7542" cy="-68" rx="29.5104" ry="18"/>
<text text-anchor="start" x="105.2024" y="-64.8" font-family="Times,serif" font-size="14.00" fill="#000000">q</text>
<text text-anchor="start" x="112.2024" y="-64.8" font-family="Times,serif" baseline-shift="sub" font-size="14.00" fill="#000000">start</text>
</g>
<!-- null&#45;&gt;qstart -->
<g id="edge1" class="edge">
<title>null&#45;&gt;qstart</title>
<path fill="none" stroke="#000000" d="M54.1176,-68C62.3581,-68 71.5957,-68 80.5072,-68"/>
<polygon fill="#000000" stroke="#000000" points="80.7393,-71.5001 90.7392,-68 80.7392,-64.5001 80.7393,-71.5001"/>
</g>
<!-- qaccept -->
<g id="node3" class="node">
<title>qaccept</title>
<ellipse fill="none" stroke="#000000" cx="492.0742" cy="-104" rx="37.2055" ry="37.2055"/>
<ellipse fill="none" stroke="#000000" cx="492.0742" cy="-104" rx="41.2161" ry="41.2161"/>
<text text-anchor="start" x="470.7017" y="-100.8" font-family="Times,serif" font-size="14.00" fill="#000000">q</text>
<text text-anchor="start" x="477.7017" y="-100.8" font-family="Times,serif" baseline-shift="sub" font-size="14.00" fill="#000000">accept</text>
</g>
<!-- qstart&#45;&gt;qaccept -->
<g id="edge4" class="edge">
<title>qstart&#45;&gt;qaccept</title>
<path fill="none" stroke="#000000" d="M135.2236,-83.838C149.5506,-98.2444 172.9286,-118.5121 198.0337,-127 280.5718,-154.9058 383.2924,-135.554 442.9015,-119.4377"/>
<polygon fill="#000000" stroke="#000000" points="444.106,-122.7356 452.8017,-116.683 442.2295,-115.9918 444.106,-122.7356"/>
<text text-anchor="middle" x="284.4097" y="-143.8" font-family="Times,serif" font-size="14.00" fill="#000000">b</text>
</g>
<!-- q1 -->
<g id="node4" class="node">
<title>q1</title>
<ellipse fill="none" stroke="#000000" cx="225.0337" cy="-68" rx="27" ry="18"/>
</g>
<!-- qstart&#45;&gt;q1 -->
<g id="edge2" class="edge">
<title>qstart&#45;&gt;q1</title>
<path fill="none" stroke="#000000" d="M150.6365,-68C162.1806,-68 175.5168,-68 187.6821,-68"/>
<polygon fill="#000000" stroke="#000000" points="187.9969,-71.5001 197.9969,-68 187.9968,-64.5001 187.9969,-71.5001"/>
<text text-anchor="start" x="168.5083" y="-70.8" font-family="Times,serif" font-size="14.00" fill="#000000">∅</text>
</g>
<!-- q2 -->
<g id="node5" class="node">
<title>q2</title>
<ellipse fill="none" stroke="#000000" cx="343.7857" cy="-18" rx="27" ry="18"/>
</g>
<!-- qstart&#45;&gt;q2 -->
<g id="edge3" class="edge">
<title>qstart&#45;&gt;q2</title>
<path fill="none" stroke="#000000" d="M140.794,-54.5476C155.8636,-45.1506 177.382,-33.2156 198.0337,-27 233.8655,-16.2156 276.8294,-14.875 306.7903,-15.6735"/>
<polygon fill="#000000" stroke="#000000" points="306.6934,-19.1721 316.8125,-16.0331 306.9445,-12.1766 306.6934,-19.1721"/>
<text text-anchor="start" x="214.9268" y="-30.8" font-family="Times,serif" font-size="14.00" fill="#000000">ab</text>
<text text-anchor="start" x="228.1407" y="-30.8" font-family="Times,serif" baseline-shift="super" font-size="14.00" fill="#000000">*</text>
</g>
<!-- q1&#45;&gt;qaccept -->
<g id="edge6" class="edge">
<title>q1&#45;&gt;qaccept</title>
<path fill="none" stroke="#000000" d="M251.1475,-73.5737C257.3235,-74.7945 263.8979,-76.0148 270.0337,-77 328.3699,-86.3664 395.7951,-94.1365 440.8996,-98.8993"/>
<polygon fill="#000000" stroke="#000000" points="440.709,-102.3983 451.0187,-99.9568 441.4367,-95.4362 440.709,-102.3983"/>
<text text-anchor="start" x="336.7857" y="-93.8" font-family="Times,serif" font-size="14.00" fill="#000000">b</text>
<text text-anchor="start" x="343.7857" y="-93.8" font-family="Times,serif" baseline-shift="super" font-size="14.00" fill="#000000">*</text>
</g>
<!-- q1&#45;&gt;q1 -->
<g id="edge5" class="edge">
<title>q1&#45;&gt;q1</title>
<path fill="none" stroke="#000000" d="M216.1737,-85.0373C214.3655,-94.8579 217.3189,-104 225.0337,-104 229.8555,-104 232.8173,-100.4289 233.9192,-95.3529"/>
<polygon fill="#000000" stroke="#000000" points="237.4185,-95.0286 233.8937,-85.0373 230.4185,-95.0459 237.4185,-95.0286"/>
<text text-anchor="middle" x="225.0337" y="-106.8" font-family="Times,serif" font-size="14.00" fill="#000000">ab</text>
</g>
<!-- q1&#45;&gt;q2 -->
<g id="edge7" class="edge">
<title>q1&#45;&gt;q2</title>
<path fill="none" stroke="#000000" d="M251.4352,-64.0643C265.867,-61.3015 283.802,-56.8494 298.7857,-50 305.4636,-46.9473 312.1738,-42.8568 318.2992,-38.6227"/>
<polygon fill="#000000" stroke="#000000" points="320.7758,-41.1478 326.7833,-32.4207 316.6448,-35.4967 320.7758,-41.1478"/>
<text text-anchor="start" x="270.0337" y="-62.8" font-family="Times,serif" font-size="14.00" fill="#000000">(aa)</text>
<text text-anchor="start" x="291.7857" y="-62.8" font-family="Times,serif" baseline-shift="super" font-size="14.00" fill="#000000">*</text>
</g>
<!-- q2&#45;&gt;qaccept -->
<g id="edge9" class="edge">
<title>q2&#45;&gt;qaccept</title>
<path fill="none" stroke="#000000" d="M364.4046,-29.9579C385.8039,-42.3685 419.9404,-62.166 447.5327,-78.1681"/>
<polygon fill="#000000" stroke="#000000" points="445.8304,-81.2268 456.2368,-83.2161 449.3422,-75.1715 445.8304,-81.2268"/>
<text text-anchor="middle" x="410.876" y="-71.4836" font-family="Times,serif" font-size="14.00" fill="#000000">ab ∪ ba</text>
</g>
<!-- q2&#45;&gt;q1 -->
<g id="edge10" class="edge">
<title>q2&#45;&gt;q1</title>
<path fill="none" stroke="#000000" d="M316.8919,-19.9409C302.4778,-21.7502 284.7154,-25.2459 270.0337,-32 262.2369,-35.5868 254.6126,-40.812 247.9206,-46.1748"/>
<polygon fill="#000000" stroke="#000000" points="245.3386,-43.7768 240,-52.9283 249.8803,-49.1034 245.3386,-43.7768"/>
<text text-anchor="start" x="277.8028" y="-35.8" font-family="Times,serif" font-size="14.00" fill="#000000">a</text>
<text text-anchor="start" x="284.0166" y="-35.8" font-family="Times,serif" baseline-shift="super" font-size="14.00" fill="#000000">*</text>
</g>
<!-- q2&#45;&gt;q2 -->
<g id="edge8" class="edge">
<title>q2&#45;&gt;q2</title>
<path fill="none" stroke="#000000" d="M333.5081,-35.0373C331.4106,-44.8579 334.8365,-54 343.7857,-54 349.3789,-54 352.8146,-50.4289 354.0928,-45.3529"/>
<polygon fill="#000000" stroke="#000000" points="357.592,-45.0272 354.0633,-35.0373 350.592,-45.0473 357.592,-45.0272"/>
<text text-anchor="middle" x="343.7857" y="-56.8" font-family="Times,serif" font-size="14.00" fill="#000000">aa</text>
</g>
</g>
</svg>
