<?xml version="1.0" encoding="UTF-8" standalone="no"?>
<!DOCTYPE svg PUBLIC "-//W3C//DTD SVG 1.1//EN"
 "http://www.w3.org/Graphics/SVG/1.1/DTD/svg11.dtd">
<!-- Generated by graphviz version 2.40.1 (20161225.0304)
 -->
<!-- Title: DFA Converted from NFA Pages: 1 -->
<svg width="235pt" height="597pt"
 viewBox="0.00 0.00 235.04 596.88" xmlns="http://www.w3.org/2000/svg" xmlns:xlink="http://www.w3.org/1999/xlink">
<g id="graph0" class="graph" transform="scale(1 1) rotate(0) translate(4 592.878)">
<title>DFA Converted from NFA</title>
<polygon fill="#ffffff" stroke="transparent" points="-4,4 -4,-592.878 231.0423,-592.878 231.0423,4 -4,4"/>
<!-- {q0,q1,q3} -->
<g id="node1" class="node">
<title>{q0,q1,q3}</title>
<ellipse fill="none" stroke="#000000" cx="53.5483" cy="-389.8503" rx="49.5931" ry="49.5931"/>
<ellipse fill="none" stroke="#000000" cx="53.5483" cy="-389.8503" rx="53.5967" ry="53.5967"/>
<text text-anchor="middle" x="53.5483" y="-385.6503" font-family="Times,serif" font-size="14.00" fill="#000000">{q0,q1,q3}</text>
</g>
<!-- {q0,q1,q2} -->
<g id="node5" class="node">
<title>{q0,q1,q2}</title>
<ellipse fill="none" stroke="#000000" cx="82.5483" cy="-232.7537" rx="49.5931" ry="49.5931"/>
<ellipse fill="none" stroke="#000000" cx="82.5483" cy="-232.7537" rx="53.5967" ry="53.5967"/>
<text text-anchor="middle" x="82.5483" y="-228.5537" font-family="Times,serif" font-size="14.00" fill="#000000">{q0,q1,q2}</text>
</g>
<!-- {q0,q1,q3}&#45;&gt;{q0,q1,q2} -->
<g id="edge7" class="edge">
<title>{q0,q1,q3}&#45;&gt;{q0,q1,q2}</title>
<path fill="none" stroke="#000000" d="M39.6476,-337.8757C38.4915,-326.6993 38.6933,-315.0267 41.5483,-304.302 43.1435,-298.3099 45.3726,-292.2973 47.9753,-286.4426"/>
<polygon fill="#000000" stroke="#000000" points="51.1456,-287.926 52.3356,-277.3982 44.8401,-284.8862 51.1456,-287.926"/>
<text text-anchor="middle" x="45.0483" y="-307.102" font-family="Times,serif" font-size="14.00" fill="#000000">b</text>
</g>
<!-- {q0,q1,q3}&#45;&gt;{q0,q1,q2} -->
<g id="edge8" class="edge">
<title>{q0,q1,q3}&#45;&gt;{q0,q1,q2}</title>
<path fill="none" stroke="#000000" d="M63.2856,-337.1024C65.7484,-323.7611 68.4174,-309.3026 70.9616,-295.5203"/>
<polygon fill="#000000" stroke="#000000" points="74.4139,-296.099 72.7874,-285.6298 67.5302,-294.8282 74.4139,-296.099"/>
<text text-anchor="middle" x="72.6553" y="-307.102" font-family="Times,serif" font-size="14.00" fill="#000000">a</text>
</g>
<!-- {q0} -->
<g id="node2" class="node">
<title>{q0}</title>
<ellipse fill="none" stroke="#000000" cx="163.5483" cy="-520.8383" rx="27.3795" ry="27.3795"/>
<text text-anchor="middle" x="163.5483" y="-516.6383" font-family="Times,serif" font-size="14.00" fill="#000000">{q0}</text>
</g>
<!-- {q0}&#45;&gt;{q0} -->
<g id="edge1" class="edge">
<title>{q0}&#45;&gt;{q0}</title>
<path fill="none" stroke="#000000" d="M190.1523,-529.0561C200.4385,-529.4213 208.988,-526.6821 208.988,-520.8383 208.988,-517.0947 205.4793,-514.6251 200.253,-513.4296"/>
<polygon fill="#000000" stroke="#000000" points="200.3999,-509.9303 190.1523,-512.6206 199.8409,-516.9079 200.3999,-509.9303"/>
<text text-anchor="middle" x="212.488" y="-516.6383" font-family="Times,serif" font-size="14.00" fill="#000000">b</text>
</g>
<!-- {q0,q1} -->
<g id="node4" class="node">
<title>{q0,q1}</title>
<ellipse fill="none" stroke="#000000" cx="163.5483" cy="-389.8503" rx="38.488" ry="38.488"/>
<text text-anchor="middle" x="163.5483" y="-385.6503" font-family="Times,serif" font-size="14.00" fill="#000000">{q0,q1}</text>
</g>
<!-- {q0}&#45;&gt;{q0,q1} -->
<g id="edge2" class="edge">
<title>{q0}&#45;&gt;{q0,q1}</title>
<path fill="none" stroke="#000000" d="M163.5483,-493.379C163.5483,-477.5546 163.5483,-457.1968 163.5483,-438.727"/>
<polygon fill="#000000" stroke="#000000" points="167.0484,-438.7009 163.5483,-428.701 160.0484,-438.701 167.0484,-438.7009"/>
<text text-anchor="middle" x="166.6553" y="-464.1987" font-family="Times,serif" font-size="14.00" fill="#000000">a</text>
</g>
<!-- {q0,q1,q2,q3} -->
<g id="node3" class="node">
<title>{q0,q1,q2,q3}</title>
<ellipse fill="none" stroke="#000000" cx="82.5483" cy="-64.6027" rx="60.6991" ry="60.6991"/>
<ellipse fill="none" stroke="#000000" cx="82.5483" cy="-64.6027" rx="64.7055" ry="64.7055"/>
<text text-anchor="middle" x="82.5483" y="-60.4027" font-family="Times,serif" font-size="14.00" fill="#000000">{q0,q1,q2,q3}</text>
</g>
<!-- {q0,q1,q2,q3}&#45;&gt;{q0,q1,q2,q3} -->
<g id="edge9" class="edge">
<title>{q0,q1,q2,q3}&#45;&gt;{q0,q1,q2,q3}</title>
<path fill="none" stroke="#000000" d="M146.9663,-72.2706C157.7263,-71.1977 165.151,-68.6417 165.151,-64.6027 165.151,-62.0151 162.1039,-60.0363 157.0849,-58.6661"/>
<polygon fill="#000000" stroke="#000000" points="157.4134,-55.1715 146.9663,-56.9348 156.2327,-62.0712 157.4134,-55.1715"/>
<text text-anchor="middle" x="168.651" y="-60.4027" font-family="Times,serif" font-size="14.00" fill="#000000">b</text>
</g>
<!-- {q0,q1,q2,q3}&#45;&gt;{q0,q1,q2,q3} -->
<g id="edge10" class="edge">
<title>{q0,q1,q2,q3}&#45;&gt;{q0,q1,q2,q3}</title>
<path fill="none" stroke="#000000" d="M145.425,-81.1027C166.3839,-81.1027 183.151,-75.6027 183.151,-64.6027 183.151,-55.4933 171.6523,-50.1558 155.7966,-48.5901"/>
<polygon fill="#000000" stroke="#000000" points="155.5783,-45.0761 145.425,-48.1027 155.2496,-52.0683 155.5783,-45.0761"/>
<text text-anchor="middle" x="186.2579" y="-60.4027" font-family="Times,serif" font-size="14.00" fill="#000000">a</text>
</g>
<!-- {q0,q1}&#45;&gt;{q0,q1} -->
<g id="edge3" class="edge">
<title>{q0,q1}&#45;&gt;{q0,q1}</title>
<path fill="none" stroke="#000000" d="M199.407,-404.4718C210.9186,-404.3218 220.0423,-399.448 220.0423,-389.8503 220.0423,-383.2519 215.7299,-378.8863 209.294,-376.7534"/>
<polygon fill="#000000" stroke="#000000" points="209.8236,-373.2938 199.407,-375.2289 208.7568,-380.2121 209.8236,-373.2938"/>
<text text-anchor="middle" x="223.5423" y="-385.6503" font-family="Times,serif" font-size="14.00" fill="#000000">b</text>
</g>
<!-- {q0,q1}&#45;&gt;{q0,q1,q2} -->
<g id="edge4" class="edge">
<title>{q0,q1}&#45;&gt;{q0,q1,q2}</title>
<path fill="none" stroke="#000000" d="M145.7725,-355.3748C135.8265,-336.0847 123.1769,-311.5514 111.81,-289.5056"/>
<polygon fill="#000000" stroke="#000000" points="114.8888,-287.8394 107.1951,-280.5552 108.6671,-291.0473 114.8888,-287.8394"/>
<text text-anchor="middle" x="128.6553" y="-307.102" font-family="Times,serif" font-size="14.00" fill="#000000">a</text>
</g>
<!-- {q0,q1,q2}&#45;&gt;{q0,q1,q3} -->
<g id="edge5" class="edge">
<title>{q0,q1,q2}&#45;&gt;{q0,q1,q3}</title>
<path fill="none" stroke="#000000" d="M79.9518,-286.3886C78.9341,-297.0205 77.5181,-308.0584 75.5483,-318.302 74.8574,-321.8952 74.0523,-325.5635 73.1665,-329.247"/>
<polygon fill="#000000" stroke="#000000" points="69.7616,-328.4344 70.6564,-338.9914 76.5403,-330.1806 69.7616,-328.4344"/>
<text text-anchor="middle" x="82.0483" y="-307.102" font-family="Times,serif" font-size="14.00" fill="#000000">b</text>
</g>
<!-- {q0,q1,q2}&#45;&gt;{q0,q1,q2,q3} -->
<g id="edge6" class="edge">
<title>{q0,q1,q2}&#45;&gt;{q0,q1,q2,q3}</title>
<path fill="none" stroke="#000000" d="M82.5483,-179.0873C82.5483,-166.4498 82.5483,-152.7529 82.5483,-139.3741"/>
<polygon fill="#000000" stroke="#000000" points="86.0484,-139.2281 82.5483,-129.2281 79.0484,-139.2282 86.0484,-139.2281"/>
<text text-anchor="middle" x="85.6553" y="-150.0053" font-family="Times,serif" font-size="14.00" fill="#000000">a</text>
</g>
<!-- start_point_xyza -->
<g id="node6" class="node">
<title>start_point_xyza</title>
<ellipse fill="#000000" stroke="#000000" cx="163.5483" cy="-587.078" rx="1.8" ry="1.8"/>
</g>
<!-- start_point_xyza&#45;&gt;{q0} -->
<g id="edge11" class="edge">
<title>start_point_xyza&#45;&gt;{q0}</title>
<path fill="none" stroke="#000000" d="M163.5483,-585.167C163.5483,-580.9342 163.5483,-570.2294 163.5483,-558.7404"/>
<polygon fill="#000000" stroke="#000000" points="167.0484,-558.585 163.5483,-548.5851 160.0484,-558.5851 167.0484,-558.585"/>
</g>
</g>
</svg>
