<?xml version="1.0" encoding="UTF-8" standalone="no"?>
<!DOCTYPE svg PUBLIC "-//W3C//DTD SVG 1.1//EN"
 "http://www.w3.org/Graphics/SVG/1.1/DTD/svg11.dtd">
<!-- Generated by graphviz version 2.40.1 (20161225.0304)
 -->
<!-- Title: A DFA Converted from an NFA Pages: 1 -->
<svg width="101pt" height="359pt"
 viewBox="0.00 0.00 101.00 358.60" xmlns="http://www.w3.org/2000/svg" xmlns:xlink="http://www.w3.org/1999/xlink">
<g id="graph0" class="graph" transform="scale(1 1) rotate(0) translate(4 354.6)">
<title>A DFA Converted from an NFA</title>
<polygon fill="#ffffff" stroke="transparent" points="-4,4 -4,-354.6 97,-354.6 97,4 -4,4"/>
<!-- C -->
<g id="node1" class="node">
<title>C</title>
<ellipse fill="none" stroke="#000000" cx="22" cy="-116" rx="18" ry="18"/>
<ellipse fill="none" stroke="#000000" cx="22" cy="-116" rx="22" ry="22"/>
<text text-anchor="middle" x="22" y="-111.8" font-family="Times,serif" font-size="14.00" fill="#000000">C</text>
</g>
<!-- D -->
<g id="node4" class="node">
<title>D</title>
<ellipse fill="none" stroke="#000000" cx="22" cy="-22" rx="18" ry="18"/>
<ellipse fill="none" stroke="#000000" cx="22" cy="-22" rx="22" ry="22"/>
<text text-anchor="middle" x="22" y="-17.8" font-family="Times,serif" font-size="14.00" fill="#000000">D</text>
</g>
<!-- C&#45;&gt;D -->
<g id="edge5" class="edge">
<title>C&#45;&gt;D</title>
<path fill="none" stroke="#000000" d="M15.4864,-94.6003C13.9595,-88.6366 12.5546,-82.1158 11.7861,-76 10.8374,-68.4502 11.4711,-60.3638 12.7932,-52.8078"/>
<polygon fill="#000000" stroke="#000000" points="16.2356,-53.4482 14.9389,-42.933 9.3953,-51.9617 16.2356,-53.4482"/>
<text text-anchor="middle" x="15.1069" y="-64.8" font-family="Times,serif" font-size="14.00" fill="#000000">a</text>
</g>
<!-- C&#45;&gt;D -->
<g id="edge6" class="edge">
<title>C&#45;&gt;D</title>
<path fill="none" stroke="#000000" d="M22,-93.7233C22,-81.8997 22,-67.1579 22,-54.1197"/>
<polygon fill="#000000" stroke="#000000" points="25.5001,-54.1168 22,-44.1168 18.5001,-54.1168 25.5001,-54.1168"/>
<text text-anchor="middle" x="25.5" y="-64.8" font-family="Times,serif" font-size="14.00" fill="#000000">b</text>
</g>
<!-- B -->
<g id="node2" class="node">
<title>B</title>
<ellipse fill="none" stroke="#000000" cx="22" cy="-206" rx="18" ry="18"/>
<text text-anchor="middle" x="22" y="-201.8" font-family="Times,serif" font-size="14.00" fill="#000000">B</text>
</g>
<!-- B&#45;&gt;C -->
<g id="edge3" class="edge">
<title>B&#45;&gt;C</title>
<path fill="none" stroke="#000000" d="M22,-187.7872C22,-176.439 22,-161.5173 22,-148.2194"/>
<polygon fill="#000000" stroke="#000000" points="25.5001,-148.002 22,-138.0021 18.5001,-148.0021 25.5001,-148.002"/>
<text text-anchor="middle" x="25.1069" y="-158.8" font-family="Times,serif" font-size="14.00" fill="#000000">a</text>
</g>
<!-- B&#45;&gt;B -->
<g id="edge4" class="edge">
<title>B&#45;&gt;B</title>
<path fill="none" stroke="#000000" d="M38.6641,-213.3828C48.625,-215.0234 58,-212.5625 58,-206 58,-201.7959 54.1525,-199.2751 48.7682,-198.4375"/>
<polygon fill="#000000" stroke="#000000" points="48.6002,-194.9399 38.6641,-198.6172 48.7247,-201.9388 48.6002,-194.9399"/>
<text text-anchor="middle" x="61.5" y="-201.8" font-family="Times,serif" font-size="14.00" fill="#000000">b</text>
</g>
<!-- A -->
<g id="node3" class="node">
<title>A</title>
<ellipse fill="none" stroke="#000000" cx="22" cy="-292" rx="18" ry="18"/>
<text text-anchor="middle" x="22" y="-287.8" font-family="Times,serif" font-size="14.00" fill="#000000">A</text>
</g>
<!-- A&#45;&gt;B -->
<g id="edge1" class="edge">
<title>A&#45;&gt;B</title>
<path fill="none" stroke="#000000" d="M22,-273.7616C22,-262.3597 22,-247.4342 22,-234.494"/>
<polygon fill="#000000" stroke="#000000" points="25.5001,-234.2121 22,-224.2121 18.5001,-234.2121 25.5001,-234.2121"/>
<text text-anchor="middle" x="25.1069" y="-244.8" font-family="Times,serif" font-size="14.00" fill="#000000">a</text>
</g>
<!-- A&#45;&gt;A -->
<g id="edge2" class="edge">
<title>A&#45;&gt;A</title>
<path fill="none" stroke="#000000" d="M39.0373,-298.3792C48.8579,-299.6811 58,-297.5547 58,-292 58,-288.5283 54.4289,-286.3958 49.3529,-285.6025"/>
<polygon fill="#000000" stroke="#000000" points="49.031,-282.1029 39.0373,-285.6208 49.0435,-289.1029 49.031,-282.1029"/>
<text text-anchor="middle" x="61.5" y="-287.8" font-family="Times,serif" font-size="14.00" fill="#000000">b</text>
</g>
<!-- D&#45;&gt;D -->
<g id="edge7" class="edge">
<title>D&#45;&gt;D</title>
<path fill="none" stroke="#000000" d="M43.8066,-26.2451C53.5625,-26.6494 62,-25.2344 62,-22 62,-19.9785 58.7041,-18.6677 53.8504,-18.0676"/>
<polygon fill="#000000" stroke="#000000" points="53.9107,-14.5679 43.8066,-17.7549 53.6928,-21.5645 53.9107,-14.5679"/>
<text text-anchor="middle" x="65.1069" y="-17.8" font-family="Times,serif" font-size="14.00" fill="#000000">a</text>
</g>
<!-- D&#45;&gt;D -->
<g id="edge8" class="edge">
<title>D&#45;&gt;D</title>
<path fill="none" stroke="#000000" d="M42.813,-29.2015C60.8838,-32.4865 80,-30.0859 80,-22 80,-15.4302 67.3803,-12.6136 52.9552,-13.5503"/>
<polygon fill="#000000" stroke="#000000" points="52.3106,-10.1032 42.813,-14.7985 53.1656,-17.0508 52.3106,-10.1032"/>
<text text-anchor="middle" x="83.5" y="-17.8" font-family="Times,serif" font-size="14.00" fill="#000000">b</text>
</g>
<!-- start_point_xyza -->
<g id="node5" class="node">
<title>start_point_xyza</title>
<ellipse fill="#000000" stroke="#000000" cx="22" cy="-348.8" rx="1.8" ry="1.8"/>
</g>
<!-- start_point_xyza&#45;&gt;A -->
<g id="edge9" class="edge">
<title>start_point_xyza&#45;&gt;A</title>
<path fill="none" stroke="#000000" d="M22,-346.9102C22,-342.5478 22,-331.2893 22,-320.0942"/>
<polygon fill="#000000" stroke="#000000" points="25.5001,-320.0304 22,-310.0304 18.5001,-320.0304 25.5001,-320.0304"/>
</g>
</g>
</svg>
