<?xml version="1.0" encoding="UTF-8" standalone="no"?>
<!DOCTYPE svg PUBLIC "-//W3C//DTD SVG 1.1//EN"
 "http://www.w3.org/Graphics/SVG/1.1/DTD/svg11.dtd">
<!-- Generated by graphviz version 2.40.1 (20161225.0304)
 -->
<!-- Title: A Smaller DFA Converted from an NFA Pages: 1 -->
<svg width="101pt" height="265pt"
 viewBox="0.00 0.00 101.00 264.60" xmlns="http://www.w3.org/2000/svg" xmlns:xlink="http://www.w3.org/1999/xlink">
<g id="graph0" class="graph" transform="scale(1 1) rotate(0) translate(4 260.6)">
<title>A Smaller DFA Converted from an NFA</title>
<polygon fill="#ffffff" stroke="transparent" points="-4,4 -4,-260.6 97,-260.6 97,4 -4,4"/>
<!-- C -->
<g id="node1" class="node">
<title>C</title>
<ellipse fill="none" stroke="#000000" cx="22" cy="-22" rx="18" ry="18"/>
<ellipse fill="none" stroke="#000000" cx="22" cy="-22" rx="22" ry="22"/>
<text text-anchor="middle" x="22" y="-17.8" font-family="Times,serif" font-size="14.00" fill="#000000">C</text>
</g>
<!-- C&#45;&gt;C -->
<g id="edge5" class="edge">
<title>C&#45;&gt;C</title>
<path fill="none" stroke="#000000" d="M43.8066,-26.2451C53.5625,-26.6494 62,-25.2344 62,-22 62,-19.9785 58.7041,-18.6677 53.8504,-18.0676"/>
<polygon fill="#000000" stroke="#000000" points="53.9107,-14.5679 43.8066,-17.7549 53.6928,-21.5645 53.9107,-14.5679"/>
<text text-anchor="middle" x="65.1069" y="-17.8" font-family="Times,serif" font-size="14.00" fill="#000000">a</text>
</g>
<!-- C&#45;&gt;C -->
<g id="edge6" class="edge">
<title>C&#45;&gt;C</title>
<path fill="none" stroke="#000000" d="M42.813,-29.2015C60.8838,-32.4865 80,-30.0859 80,-22 80,-15.4302 67.3803,-12.6136 52.9552,-13.5503"/>
<polygon fill="#000000" stroke="#000000" points="52.3106,-10.1032 42.813,-14.7985 53.1656,-17.0508 52.3106,-10.1032"/>
<text text-anchor="middle" x="83.5" y="-17.8" font-family="Times,serif" font-size="14.00" fill="#000000">b</text>
</g>
<!-- B -->
<g id="node2" class="node">
<title>B</title>
<ellipse fill="none" stroke="#000000" cx="22" cy="-112" rx="18" ry="18"/>
<text text-anchor="middle" x="22" y="-107.8" font-family="Times,serif" font-size="14.00" fill="#000000">B</text>
</g>
<!-- B&#45;&gt;C -->
<g id="edge3" class="edge">
<title>B&#45;&gt;C</title>
<path fill="none" stroke="#000000" d="M22,-93.7872C22,-82.439 22,-67.5173 22,-54.2194"/>
<polygon fill="#000000" stroke="#000000" points="25.5001,-54.002 22,-44.0021 18.5001,-54.0021 25.5001,-54.002"/>
<text text-anchor="middle" x="25.1069" y="-64.8" font-family="Times,serif" font-size="14.00" fill="#000000">a</text>
</g>
<!-- B&#45;&gt;B -->
<g id="edge4" class="edge">
<title>B&#45;&gt;B</title>
<path fill="none" stroke="#000000" d="M38.6641,-119.3828C48.625,-121.0234 58,-118.5625 58,-112 58,-107.7959 54.1525,-105.2751 48.7682,-104.4375"/>
<polygon fill="#000000" stroke="#000000" points="48.6002,-100.9399 38.6641,-104.6172 48.7247,-107.9388 48.6002,-100.9399"/>
<text text-anchor="middle" x="61.5" y="-107.8" font-family="Times,serif" font-size="14.00" fill="#000000">b</text>
</g>
<!-- A -->
<g id="node3" class="node">
<title>A</title>
<ellipse fill="none" stroke="#000000" cx="22" cy="-198" rx="18" ry="18"/>
<text text-anchor="middle" x="22" y="-193.8" font-family="Times,serif" font-size="14.00" fill="#000000">A</text>
</g>
<!-- A&#45;&gt;B -->
<g id="edge1" class="edge">
<title>A&#45;&gt;B</title>
<path fill="none" stroke="#000000" d="M22,-179.7616C22,-168.3597 22,-153.4342 22,-140.494"/>
<polygon fill="#000000" stroke="#000000" points="25.5001,-140.2121 22,-130.2121 18.5001,-140.2121 25.5001,-140.2121"/>
<text text-anchor="middle" x="25.1069" y="-150.8" font-family="Times,serif" font-size="14.00" fill="#000000">a</text>
</g>
<!-- A&#45;&gt;A -->
<g id="edge2" class="edge">
<title>A&#45;&gt;A</title>
<path fill="none" stroke="#000000" d="M39.0373,-204.3792C48.8579,-205.6811 58,-203.5547 58,-198 58,-194.5283 54.4289,-192.3958 49.3529,-191.6025"/>
<polygon fill="#000000" stroke="#000000" points="49.031,-188.1029 39.0373,-191.6208 49.0435,-195.1029 49.031,-188.1029"/>
<text text-anchor="middle" x="61.5" y="-193.8" font-family="Times,serif" font-size="14.00" fill="#000000">b</text>
</g>
<!-- start_point_xyza -->
<g id="node4" class="node">
<title>start_point_xyza</title>
<ellipse fill="#000000" stroke="#000000" cx="22" cy="-254.8" rx="1.8" ry="1.8"/>
</g>
<!-- start_point_xyza&#45;&gt;A -->
<g id="edge7" class="edge">
<title>start_point_xyza&#45;&gt;A</title>
<path fill="none" stroke="#000000" d="M22,-252.9102C22,-248.5478 22,-237.2893 22,-226.0942"/>
<polygon fill="#000000" stroke="#000000" points="25.5001,-226.0304 22,-216.0304 18.5001,-226.0304 25.5001,-226.0304"/>
</g>
</g>
</svg>
