<?xml version="1.0" encoding="UTF-8" standalone="no"?>
<!DOCTYPE svg PUBLIC "-//W3C//DTD SVG 1.1//EN"
 "http://www.w3.org/Graphics/SVG/1.1/DTD/svg11.dtd">
<!-- Generated by graphviz version 2.40.1 (20161225.0304)
 -->
<!-- Title: NFA 1 Pages: 1 -->
<svg width="103pt" height="366pt"
 viewBox="0.00 0.00 102.52 366.20" xmlns="http://www.w3.org/2000/svg" xmlns:xlink="http://www.w3.org/1999/xlink">
<g id="graph0" class="graph" transform="scale(1 1) rotate(0) translate(4 362.2023)">
<title>NFA 1</title>
<polygon fill="#ffffff" stroke="transparent" points="-4,4 -4,-362.2023 98.5226,-362.2023 98.5226,4 -4,4"/>
<!-- q2 -->
<g id="node1" class="node">
<title>q2</title>
<ellipse fill="none" stroke="#000000" cx="26.5723" cy="-118.8509" rx="18.9093" ry="18.9093"/>
<ellipse fill="none" stroke="#000000" cx="26.5723" cy="-118.8509" rx="22.9007" ry="22.9007"/>
<text text-anchor="middle" x="26.5723" y="-114.6509" font-family="Times,serif" font-size="14.00" fill="#000000">q2</text>
</g>
<!-- q3 -->
<g id="node2" class="node">
<title>q3</title>
<ellipse fill="none" stroke="#000000" cx="26.5723" cy="-22.9503" rx="18.9093" ry="18.9093"/>
<ellipse fill="none" stroke="#000000" cx="26.5723" cy="-22.9503" rx="22.9007" ry="22.9007"/>
<text text-anchor="middle" x="26.5723" y="-18.7503" font-family="Times,serif" font-size="14.00" fill="#000000">q3</text>
</g>
<!-- q2&#45;&gt;q3 -->
<g id="edge6" class="edge">
<title>q2&#45;&gt;q3</title>
<path fill="none" stroke="#000000" d="M12.4288,-100.7135C7.9781,-93.9395 3.6332,-85.9337 1.3584,-77.9006 -1.3584,-68.3063 1.4134,-58.2656 5.9743,-49.4309"/>
<polygon fill="#000000" stroke="#000000" points="9.0541,-51.1013 11.2199,-40.7302 3.0593,-47.4871 9.0541,-51.1013"/>
<text text-anchor="middle" x="4.6792" y="-66.7006" font-family="Times,serif" font-size="14.00" fill="#000000">a</text>
</g>
<!-- q2&#45;&gt;q3 -->
<g id="edge7" class="edge">
<title>q2&#45;&gt;q3</title>
<path fill="none" stroke="#000000" d="M26.5723,-95.636C26.5723,-83.7385 26.5723,-69.0434 26.5723,-55.9866"/>
<polygon fill="#000000" stroke="#000000" points="30.0724,-55.9513 26.5723,-45.9514 23.0724,-55.9514 30.0724,-55.9513"/>
<text text-anchor="middle" x="30.0723" y="-66.7006" font-family="Times,serif" font-size="14.00" fill="#000000">b</text>
</g>
<!-- q3&#45;&gt;q2 -->
<g id="edge8" class="edge">
<title>q3&#45;&gt;q2</title>
<path fill="none" stroke="#000000" d="M32.3055,-45.3487C34.211,-55.2921 35.6122,-67.1534 34.5723,-77.9006 34.3067,-80.6449 33.9433,-83.4785 33.5169,-86.314"/>
<polygon fill="#000000" stroke="#000000" points="30.0218,-85.9848 31.7599,-96.4361 36.9187,-87.1821 30.0218,-85.9848"/>
<text text-anchor="middle" x="38.0723" y="-66.7006" font-family="Times,serif" font-size="14.00" fill="#000000">b</text>
</g>
<!-- q0 -->
<g id="node3" class="node">
<title>q0</title>
<ellipse fill="none" stroke="#000000" cx="26.5723" cy="-298.652" rx="18.9007" ry="18.9007"/>
<text text-anchor="middle" x="26.5723" y="-294.452" font-family="Times,serif" font-size="14.00" fill="#000000">q0</text>
</g>
<!-- q0&#45;&gt;q0 -->
<g id="edge1" class="edge">
<title>q0&#45;&gt;q0</title>
<path fill="none" stroke="#000000" d="M45.584,-301.9273C55.0653,-302.3805 63.5226,-301.2887 63.5226,-298.652 63.5226,-297.0452 60.3821,-296.0122 55.7831,-295.5528"/>
<polygon fill="#000000" stroke="#000000" points="55.6429,-292.05 45.584,-295.3767 55.522,-299.049 55.6429,-292.05"/>
<text text-anchor="middle" x="66.6295" y="-294.452" font-family="Times,serif" font-size="14.00" fill="#000000">a</text>
</g>
<!-- q0&#45;&gt;q0 -->
<g id="edge3" class="edge">
<title>q0&#45;&gt;q0</title>
<path fill="none" stroke="#000000" d="M44.8669,-304.0634C62.3914,-306.9597 81.5226,-305.1559 81.5226,-298.652 81.5226,-293.4184 69.1347,-291.2282 55.1645,-292.0814"/>
<polygon fill="#000000" stroke="#000000" points="54.4126,-288.6438 44.8669,-293.2405 55.1957,-295.5999 54.4126,-288.6438"/>
<text text-anchor="middle" x="85.0226" y="-294.452" font-family="Times,serif" font-size="14.00" fill="#000000">b</text>
</g>
<!-- q1 -->
<g id="node4" class="node">
<title>q1</title>
<ellipse fill="none" stroke="#000000" cx="26.5723" cy="-210.7514" rx="18.9007" ry="18.9007"/>
<text text-anchor="middle" x="26.5723" y="-206.5514" font-family="Times,serif" font-size="14.00" fill="#000000">q1</text>
</g>
<!-- q0&#45;&gt;q1 -->
<g id="edge2" class="edge">
<title>q0&#45;&gt;q1</title>
<path fill="none" stroke="#000000" d="M26.5723,-279.5789C26.5723,-268.0602 26.5723,-253.1423 26.5723,-240.141"/>
<polygon fill="#000000" stroke="#000000" points="30.0724,-239.7873 26.5723,-229.7873 23.0724,-239.7874 30.0724,-239.7873"/>
<text text-anchor="middle" x="29.6792" y="-250.5017" font-family="Times,serif" font-size="14.00" fill="#000000">a</text>
</g>
<!-- q1&#45;&gt;q2 -->
<g id="edge4" class="edge">
<title>q1&#45;&gt;q2</title>
<path fill="none" stroke="#000000" d="M26.5723,-191.7096C26.5723,-180.3428 26.5723,-165.584 26.5723,-152.3249"/>
<polygon fill="#000000" stroke="#000000" points="30.0724,-152.1062 26.5723,-142.1062 23.0724,-152.1062 30.0724,-152.1062"/>
<text text-anchor="middle" x="29.6792" y="-162.6011" font-family="Times,serif" font-size="14.00" fill="#000000">a</text>
</g>
<!-- q1&#45;&gt;q1 -->
<g id="edge5" class="edge">
<title>q1&#45;&gt;q1</title>
<path fill="none" stroke="#000000" d="M44.0593,-218.1938C54.1392,-219.7127 63.5226,-217.2319 63.5226,-210.7514 63.5226,-206.5999 59.6716,-204.0898 54.2536,-203.2212"/>
<polygon fill="#000000" stroke="#000000" points="54.0288,-199.7229 44.0593,-203.309 54.0891,-206.7226 54.0288,-199.7229"/>
<text text-anchor="middle" x="67.0226" y="-206.5514" font-family="Times,serif" font-size="14.00" fill="#000000">b</text>
</g>
<!-- start_point_xyza -->
<g id="node5" class="node">
<title>start_point_xyza</title>
<ellipse fill="#000000" stroke="#000000" cx="26.5723" cy="-356.4023" rx="1.8" ry="1.8"/>
</g>
<!-- start_point_xyza&#45;&gt;q0 -->
<g id="edge9" class="edge">
<title>start_point_xyza&#45;&gt;q0</title>
<path fill="none" stroke="#000000" d="M26.5723,-354.4808C26.5723,-350.1354 26.5723,-339.0598 26.5723,-327.9084"/>
<polygon fill="#000000" stroke="#000000" points="30.0724,-327.8368 26.5723,-317.8369 23.0724,-327.8369 30.0724,-327.8368"/>
</g>
</g>
</svg>
