<?xml version="1.0" encoding="UTF-8" standalone="no"?>
<!DOCTYPE svg PUBLIC "-//W3C//DTD SVG 1.1//EN"
 "http://www.w3.org/Graphics/SVG/1.1/DTD/svg11.dtd">
<!-- Generated by graphviz version 2.40.1 (20161225.0304)
 -->
<!-- Title: DFA with inaccessible state. Pages: 1 -->
<svg width="132pt" height="318pt"
 viewBox="0.00 0.00 131.90 317.60" xmlns="http://www.w3.org/2000/svg" xmlns:xlink="http://www.w3.org/1999/xlink">
<g id="graph0" class="graph" transform="scale(1 1) rotate(0) translate(4 313.6023)">
<title>DFA with inaccessible state.</title>
<polygon fill="#ffffff" stroke="transparent" points="-4,4 -4,-313.6023 127.9006,-313.6023 127.9006,4 -4,4"/>
<!-- q2 -->
<g id="node1" class="node">
<title>q2</title>
<ellipse fill="none" stroke="#000000" cx="75.9503" cy="-198.7514" rx="18.9093" ry="18.9093"/>
<ellipse fill="none" stroke="#000000" cx="75.9503" cy="-198.7514" rx="22.9007" ry="22.9007"/>
<text text-anchor="middle" x="75.9503" y="-194.5514" font-family="Times,serif" font-size="14.00" fill="#000000">q2</text>
</g>
<!-- q2&#45;&gt;q2 -->
<g id="edge6" class="edge">
<title>q2&#45;&gt;q2</title>
<path fill="none" stroke="#000000" d="M97.4397,-207.1659C107.7761,-208.2047 116.9006,-205.3999 116.9006,-198.7514 116.9006,-194.4923 113.1559,-191.8105 107.7468,-190.7062"/>
<polygon fill="#000000" stroke="#000000" points="107.5586,-187.1973 97.4397,-190.337 107.308,-194.1929 107.5586,-187.1973"/>
<text text-anchor="middle" x="120.4006" y="-194.5514" font-family="Times,serif" font-size="14.00" fill="#000000">1</text>
</g>
<!-- q0 -->
<g id="node2" class="node">
<title>q0</title>
<ellipse fill="none" stroke="#000000" cx="18.9503" cy="-106.8509" rx="18.9007" ry="18.9007"/>
<text text-anchor="middle" x="18.9503" y="-102.6509" font-family="Times,serif" font-size="14.00" fill="#000000">q0</text>
</g>
<!-- q2&#45;&gt;q0 -->
<g id="edge5" class="edge">
<title>q2&#45;&gt;q0</title>
<path fill="none" stroke="#000000" d="M63.5821,-178.8104C55.0138,-164.9958 43.5449,-146.5046 34.3788,-131.7261"/>
<polygon fill="#000000" stroke="#000000" points="37.2609,-129.7325 29.0157,-123.0792 31.3122,-133.4221 37.2609,-129.7325"/>
<text text-anchor="middle" x="52.4503" y="-146.6011" font-family="Times,serif" font-size="14.00" fill="#000000">0</text>
</g>
<!-- q0&#45;&gt;q0 -->
<g id="edge1" class="edge">
<title>q0&#45;&gt;q0</title>
<path fill="none" stroke="#000000" d="M36.4373,-114.2933C46.5172,-115.8121 55.9006,-113.3313 55.9006,-106.8509 55.9006,-102.6993 52.0496,-100.1892 46.6316,-99.3206"/>
<polygon fill="#000000" stroke="#000000" points="46.4068,-95.8223 36.4373,-99.4084 46.4671,-102.822 46.4068,-95.8223"/>
<text text-anchor="middle" x="59.4006" y="-102.6509" font-family="Times,serif" font-size="14.00" fill="#000000">0</text>
</g>
<!-- q1 -->
<g id="node4" class="node">
<title>q1</title>
<ellipse fill="none" stroke="#000000" cx="48.9503" cy="-18.9503" rx="18.9007" ry="18.9007"/>
<text text-anchor="middle" x="48.9503" y="-14.7503" font-family="Times,serif" font-size="14.00" fill="#000000">q1</text>
</g>
<!-- q0&#45;&gt;q1 -->
<g id="edge2" class="edge">
<title>q0&#45;&gt;q1</title>
<path fill="none" stroke="#000000" d="M17.5512,-87.948C17.4424,-78.1224 18.295,-66.0741 21.9503,-55.9006 23.7838,-50.7974 26.5587,-45.789 29.6428,-41.1875"/>
<polygon fill="#000000" stroke="#000000" points="32.6302,-43.0356 35.7883,-32.9223 27.0128,-38.8588 32.6302,-43.0356"/>
<text text-anchor="middle" x="25.4503" y="-58.7006" font-family="Times,serif" font-size="14.00" fill="#000000">1</text>
</g>
<!-- q3 -->
<g id="node3" class="node">
<title>q3</title>
<ellipse fill="none" stroke="#000000" cx="75.9503" cy="-290.652" rx="18.9007" ry="18.9007"/>
<text text-anchor="middle" x="75.9503" y="-286.452" font-family="Times,serif" font-size="14.00" fill="#000000">q3</text>
</g>
<!-- q3&#45;&gt;q2 -->
<g id="edge7" class="edge">
<title>q3&#45;&gt;q2</title>
<path fill="none" stroke="#000000" d="M68.9336,-272.8876C66.9034,-266.892 64.9627,-260.0971 63.9503,-253.7017 62.7294,-245.9897 63.4419,-237.7344 64.9992,-230.0275"/>
<polygon fill="#000000" stroke="#000000" points="68.3999,-230.8552 67.4414,-220.3038 61.6108,-229.15 68.3999,-230.8552"/>
<text text-anchor="middle" x="67.4503" y="-242.5017" font-family="Times,serif" font-size="14.00" fill="#000000">0</text>
</g>
<!-- q3&#45;&gt;q2 -->
<g id="edge8" class="edge">
<title>q3&#45;&gt;q2</title>
<path fill="none" stroke="#000000" d="M75.9503,-271.6101C75.9503,-260.2433 75.9503,-245.4846 75.9503,-232.2254"/>
<polygon fill="#000000" stroke="#000000" points="79.4504,-232.0067 75.9503,-222.0068 72.4504,-232.0068 79.4504,-232.0067"/>
<text text-anchor="middle" x="79.4503" y="-242.5017" font-family="Times,serif" font-size="14.00" fill="#000000">1</text>
</g>
<!-- q1&#45;&gt;q2 -->
<g id="edge4" class="edge">
<title>q1&#45;&gt;q2</title>
<path fill="none" stroke="#000000" d="M56.3351,-36.4427C61.7461,-50.1664 68.6922,-69.8955 71.9503,-87.9006 76.6063,-113.6307 77.4485,-143.2511 77.2128,-165.3965"/>
<polygon fill="#000000" stroke="#000000" points="73.7093,-165.5542 77.0224,-175.6177 80.7081,-165.6846 73.7093,-165.5542"/>
<text text-anchor="middle" x="79.4503" y="-102.6509" font-family="Times,serif" font-size="14.00" fill="#000000">1</text>
</g>
<!-- q1&#45;&gt;q0 -->
<g id="edge3" class="edge">
<title>q1&#45;&gt;q0</title>
<path fill="none" stroke="#000000" d="M42.7422,-37.14C38.6411,-49.1565 33.1848,-65.1436 28.532,-78.7764"/>
<polygon fill="#000000" stroke="#000000" points="25.084,-78.0433 25.1663,-88.6378 31.7088,-80.3043 25.084,-78.0433"/>
<text text-anchor="middle" x="39.4503" y="-58.7006" font-family="Times,serif" font-size="14.00" fill="#000000">0</text>
</g>
<!-- start_point_xyza -->
<g id="node5" class="node">
<title>start_point_xyza</title>
<ellipse fill="#000000" stroke="#000000" cx="18.9503" cy="-198.7514" rx="1.8" ry="1.8"/>
</g>
<!-- start_point_xyza&#45;&gt;q0 -->
<g id="edge9" class="edge">
<title>start_point_xyza&#45;&gt;q0</title>
<path fill="none" stroke="#000000" d="M18.9503,-196.832C18.9503,-189.0533 18.9503,-159.1839 18.9503,-135.9674"/>
<polygon fill="#000000" stroke="#000000" points="22.4504,-135.8718 18.9503,-125.8718 15.4504,-135.8718 22.4504,-135.8718"/>
</g>
</g>
</svg>
