<?xml version="1.0" encoding="UTF-8" standalone="no"?>
<!DOCTYPE svg PUBLIC "-//W3C//DTD SVG 1.1//EN"
 "http://www.w3.org/Graphics/SVG/1.1/DTD/svg11.dtd">
<!-- Generated by graphviz version 2.40.1 (20161225.0304)
 -->
<!-- Title: A Non&#45;Minimal DFA Pages: 1 -->
<svg width="260pt" height="581pt"
 viewBox="0.00 0.00 260.00 581.30" xmlns="http://www.w3.org/2000/svg" xmlns:xlink="http://www.w3.org/1999/xlink">
<g id="graph0" class="graph" transform="scale(1 1) rotate(0) translate(4 577.304)">
<title>A Non&#45;Minimal DFA</title>
<polygon fill="#ffffff" stroke="transparent" points="-4,4 -4,-577.304 256,-577.304 256,4 -4,4"/>
<!-- q7 -->
<g id="node1" class="node">
<title>q7</title>
<ellipse fill="none" stroke="#000000" cx="46" cy="-554.3537" rx="18.9007" ry="18.9007"/>
<text text-anchor="middle" x="46" y="-550.1537" font-family="Times,serif" font-size="14.00" fill="#000000">q7</text>
</g>
<!-- q6 -->
<g id="node3" class="node">
<title>q6</title>
<ellipse fill="none" stroke="#000000" cx="111" cy="-466.4531" rx="18.9007" ry="18.9007"/>
<text text-anchor="middle" x="111" y="-462.2531" font-family="Times,serif" font-size="14.00" fill="#000000">q6</text>
</g>
<!-- q7&#45;&gt;q6 -->
<g id="edge15" class="edge">
<title>q7&#45;&gt;q6</title>
<path fill="none" stroke="#000000" d="M57.3221,-539.0426C67.327,-525.5129 82.0744,-505.5698 93.581,-490.0091"/>
<polygon fill="#000000" stroke="#000000" points="96.458,-492.0052 99.5895,-481.8837 90.8296,-487.8432 96.458,-492.0052"/>
<text text-anchor="middle" x="85.5" y="-506.2034" font-family="Times,serif" font-size="14.00" fill="#000000">b</text>
</g>
<!-- q2 -->
<g id="node5" class="node">
<title>q2</title>
<ellipse fill="none" stroke="#000000" cx="115" cy="-198.7514" rx="18.9093" ry="18.9093"/>
<ellipse fill="none" stroke="#000000" cx="115" cy="-198.7514" rx="22.9007" ry="22.9007"/>
<text text-anchor="middle" x="115" y="-194.5514" font-family="Times,serif" font-size="14.00" fill="#000000">q2</text>
</g>
<!-- q7&#45;&gt;q2 -->
<g id="edge16" class="edge">
<title>q7&#45;&gt;q2</title>
<path fill="none" stroke="#000000" d="M33.1864,-540.2981C19.5754,-523.8593 0,-495.217 0,-466.4531 0,-466.4531 0,-466.4531 0,-290.652 0,-247.8516 49.2136,-221.7207 83.2523,-208.766"/>
<polygon fill="#000000" stroke="#000000" points="84.6083,-211.9977 92.8268,-205.3114 82.2325,-205.4132 84.6083,-211.9977"/>
<text text-anchor="middle" x="3.1069" y="-374.3526" font-family="Times,serif" font-size="14.00" fill="#000000">a</text>
</g>
<!-- q4 -->
<g id="node2" class="node">
<title>q4</title>
<ellipse fill="none" stroke="#000000" cx="111" cy="-378.5526" rx="18.9007" ry="18.9007"/>
<text text-anchor="middle" x="111" y="-374.3526" font-family="Times,serif" font-size="14.00" fill="#000000">q4</text>
</g>
<!-- q4&#45;&gt;q7 -->
<g id="edge7" class="edge">
<title>q4&#45;&gt;q7</title>
<path fill="none" stroke="#000000" d="M101.4213,-395.1295C93.7869,-408.8388 83.2165,-428.9916 76,-447.5028 65.9562,-473.2666 57.7452,-503.7249 52.4687,-525.517"/>
<polygon fill="#000000" stroke="#000000" points="49.0126,-524.9233 50.1189,-535.4602 55.825,-526.5333 49.0126,-524.9233"/>
<text text-anchor="middle" x="79.5" y="-462.2531" font-family="Times,serif" font-size="14.00" fill="#000000">b</text>
</g>
<!-- q5 -->
<g id="node6" class="node">
<title>q5</title>
<ellipse fill="none" stroke="#000000" cx="141" cy="-290.652" rx="18.9007" ry="18.9007"/>
<text text-anchor="middle" x="141" y="-286.452" font-family="Times,serif" font-size="14.00" fill="#000000">q5</text>
</g>
<!-- q4&#45;&gt;q5 -->
<g id="edge8" class="edge">
<title>q4&#45;&gt;q5</title>
<path fill="none" stroke="#000000" d="M117.216,-360.3395C121.3189,-348.3179 126.7756,-332.3297 131.4274,-318.7"/>
<polygon fill="#000000" stroke="#000000" points="134.8743,-319.4362 134.7919,-308.8417 128.2495,-317.1752 134.8743,-319.4362"/>
<text text-anchor="middle" x="130.1069" y="-330.4023" font-family="Times,serif" font-size="14.00" fill="#000000">a</text>
</g>
<!-- q6&#45;&gt;q4 -->
<g id="edge12" class="edge">
<title>q6&#45;&gt;q4</title>
<path fill="none" stroke="#000000" d="M111,-447.38C111,-435.8614 111,-420.9435 111,-407.9421"/>
<polygon fill="#000000" stroke="#000000" points="114.5001,-407.5884 111,-397.5885 107.5001,-407.5885 114.5001,-407.5884"/>
<text text-anchor="middle" x="114.1069" y="-418.3028" font-family="Times,serif" font-size="14.00" fill="#000000">a</text>
</g>
<!-- q6&#45;&gt;q6 -->
<g id="edge11" class="edge">
<title>q6&#45;&gt;q6</title>
<path fill="none" stroke="#000000" d="M128.487,-473.8955C138.5669,-475.4144 147.9503,-472.9336 147.9503,-466.4531 147.9503,-462.3016 144.0993,-459.7915 138.6813,-458.9229"/>
<polygon fill="#000000" stroke="#000000" points="138.4565,-455.4246 128.487,-459.0107 138.5169,-462.4243 138.4565,-455.4246"/>
<text text-anchor="middle" x="151.4503" y="-462.2531" font-family="Times,serif" font-size="14.00" fill="#000000">b</text>
</g>
<!-- q3 -->
<g id="node4" class="node">
<title>q3</title>
<ellipse fill="none" stroke="#000000" cx="207" cy="-554.3537" rx="18.9007" ry="18.9007"/>
<text text-anchor="middle" x="207" y="-550.1537" font-family="Times,serif" font-size="14.00" fill="#000000">q3</text>
</g>
<!-- q3&#45;&gt;q6 -->
<g id="edge6" class="edge">
<title>q3&#45;&gt;q6</title>
<path fill="none" stroke="#000000" d="M192.8349,-541.3837C176.9533,-526.842 151.0171,-503.0941 132.6032,-486.2337"/>
<polygon fill="#000000" stroke="#000000" points="134.9622,-483.6481 125.2232,-479.4764 130.235,-488.8109 134.9622,-483.6481"/>
<text text-anchor="middle" x="167.1069" y="-506.2034" font-family="Times,serif" font-size="14.00" fill="#000000">a</text>
</g>
<!-- q3&#45;&gt;q2 -->
<g id="edge5" class="edge">
<title>q3&#45;&gt;q2</title>
<path fill="none" stroke="#000000" d="M218.1957,-539.0202C229.4048,-522.1249 245,-493.7189 245,-466.4531 245,-466.4531 245,-466.4531 245,-290.652 245,-266.3185 183.5001,-231.9824 145.1002,-212.9151"/>
<polygon fill="#000000" stroke="#000000" points="146.408,-209.6586 135.8867,-208.4118 143.3341,-215.9476 146.408,-209.6586"/>
<text text-anchor="middle" x="248.5" y="-374.3526" font-family="Times,serif" font-size="14.00" fill="#000000">b</text>
</g>
<!-- q2&#45;&gt;q2 -->
<g id="edge14" class="edge">
<title>q2&#45;&gt;q2</title>
<path fill="none" stroke="#000000" d="M136.4894,-207.1659C146.8258,-208.2047 155.9503,-205.3999 155.9503,-198.7514 155.9503,-194.4923 152.2056,-191.8105 146.7965,-190.7062"/>
<polygon fill="#000000" stroke="#000000" points="146.6084,-187.1973 136.4894,-190.337 146.3577,-194.1929 146.6084,-187.1973"/>
<text text-anchor="middle" x="159.0572" y="-194.5514" font-family="Times,serif" font-size="14.00" fill="#000000">a</text>
</g>
<!-- q0 -->
<g id="node7" class="node">
<title>q0</title>
<ellipse fill="none" stroke="#000000" cx="174" cy="-106.8509" rx="18.9007" ry="18.9007"/>
<text text-anchor="middle" x="174" y="-102.6509" font-family="Times,serif" font-size="14.00" fill="#000000">q0</text>
</g>
<!-- q2&#45;&gt;q0 -->
<g id="edge13" class="edge">
<title>q2&#45;&gt;q0</title>
<path fill="none" stroke="#000000" d="M127.5124,-179.2617C136.4203,-165.3865 148.463,-146.6283 158.0592,-131.6808"/>
<polygon fill="#000000" stroke="#000000" points="161.2109,-133.2501 163.6681,-122.9441 155.3204,-129.4683 161.2109,-133.2501"/>
<text text-anchor="middle" x="152.5" y="-146.6011" font-family="Times,serif" font-size="14.00" fill="#000000">b</text>
</g>
<!-- q5&#45;&gt;q6 -->
<g id="edge10" class="edge">
<title>q5&#45;&gt;q6</title>
<path fill="none" stroke="#000000" d="M142.726,-309.7981C144.1906,-331.3608 145.1862,-367.3313 139,-397.5028 136.0105,-412.0837 130.0413,-427.5046 124.3796,-440.0567"/>
<polygon fill="#000000" stroke="#000000" points="121.0565,-438.8986 119.9678,-449.4374 127.391,-441.8778 121.0565,-438.8986"/>
<text text-anchor="middle" x="146.1069" y="-374.3526" font-family="Times,serif" font-size="14.00" fill="#000000">a</text>
</g>
<!-- q5&#45;&gt;q2 -->
<g id="edge9" class="edge">
<title>q5&#45;&gt;q2</title>
<path fill="none" stroke="#000000" d="M135.7385,-272.0545C132.3713,-260.1528 127.9152,-244.4019 123.9967,-230.5516"/>
<polygon fill="#000000" stroke="#000000" points="127.352,-229.554 121.2618,-220.8845 120.6163,-231.4597 127.352,-229.554"/>
<text text-anchor="middle" x="133.5" y="-242.5017" font-family="Times,serif" font-size="14.00" fill="#000000">b</text>
</g>
<!-- q0&#45;&gt;q5 -->
<g id="edge2" class="edge">
<title>q0&#45;&gt;q5</title>
<path fill="none" stroke="#000000" d="M183.3227,-123.6634C186.3034,-129.8177 189.2748,-136.9538 191,-143.8011 199.4615,-177.3855 203.9959,-188.8597 193,-221.7017 186.8505,-240.0688 173.6652,-257.4573 162.1112,-270.1775"/>
<polygon fill="#000000" stroke="#000000" points="159.5458,-267.7964 155.2055,-277.4614 164.6257,-272.6125 159.5458,-267.7964"/>
<text text-anchor="middle" x="202.1069" y="-194.5514" font-family="Times,serif" font-size="14.00" fill="#000000">a</text>
</g>
<!-- q1 -->
<g id="node8" class="node">
<title>q1</title>
<ellipse fill="none" stroke="#000000" cx="115" cy="-18.9503" rx="18.9007" ry="18.9007"/>
<text text-anchor="middle" x="115" y="-14.7503" font-family="Times,serif" font-size="14.00" fill="#000000">q1</text>
</g>
<!-- q0&#45;&gt;q1 -->
<g id="edge1" class="edge">
<title>q0&#45;&gt;q1</title>
<path fill="none" stroke="#000000" d="M163.1785,-90.7285C154.2795,-77.4705 141.5282,-58.4731 131.3791,-43.3525"/>
<polygon fill="#000000" stroke="#000000" points="134.2321,-41.3228 125.7529,-34.9704 128.42,-45.2241 134.2321,-41.3228"/>
<text text-anchor="middle" x="151.5" y="-58.7006" font-family="Times,serif" font-size="14.00" fill="#000000">b</text>
</g>
<!-- q1&#45;&gt;q6 -->
<g id="edge3" class="edge">
<title>q1&#45;&gt;q6</title>
<path fill="none" stroke="#000000" d="M101.3329,-32.175C86.2261,-48.2771 64,-77.034 64,-106.8509 64,-334.6023 64,-334.6023 64,-334.6023 64,-373.5608 82.4312,-415.4317 96.2095,-441.2897"/>
<polygon fill="#000000" stroke="#000000" points="93.1458,-442.9821 101.0325,-450.0568 99.279,-439.608 93.1458,-442.9821"/>
<text text-anchor="middle" x="67.5" y="-242.5017" font-family="Times,serif" font-size="14.00" fill="#000000">b</text>
</g>
<!-- q1&#45;&gt;q2 -->
<g id="edge4" class="edge">
<title>q1&#45;&gt;q2</title>
<path fill="none" stroke="#000000" d="M115,-38.1589C115,-68.465 115,-127.7707 115,-165.2135"/>
<polygon fill="#000000" stroke="#000000" points="111.5001,-165.6136 115,-175.6137 118.5001,-165.6137 111.5001,-165.6136"/>
<text text-anchor="middle" x="118.1069" y="-102.6509" font-family="Times,serif" font-size="14.00" fill="#000000">a</text>
</g>
<!-- start_point_xyza -->
<g id="node9" class="node">
<title>start_point_xyza</title>
<ellipse fill="#000000" stroke="#000000" cx="182" cy="-198.7514" rx="1.8" ry="1.8"/>
</g>
<!-- start_point_xyza&#45;&gt;q0 -->
<g id="edge17" class="edge">
<title>start_point_xyza&#45;&gt;q0</title>
<path fill="none" stroke="#000000" d="M181.8329,-196.832C181.1558,-189.0533 178.5556,-159.1839 176.5346,-135.9674"/>
<polygon fill="#000000" stroke="#000000" points="180.0099,-135.5306 175.6558,-125.8718 173.0363,-136.1377 180.0099,-135.5306"/>
</g>
</g>
</svg>
