<?xml version="1.0" encoding="UTF-8" standalone="no"?>
<!DOCTYPE svg PUBLIC "-//W3C//DTD SVG 1.1//EN"
 "http://www.w3.org/Graphics/SVG/1.1/DTD/svg11.dtd">
<!-- Generated by graphviz version 2.40.1 (20161225.0304)
 -->
<!-- Title: Dead State Pages: 1 -->
<svg width="100pt" height="182pt"
 viewBox="0.00 0.00 99.90 182.40" xmlns="http://www.w3.org/2000/svg" xmlns:xlink="http://www.w3.org/1999/xlink">
<g id="graph0" class="graph" transform="scale(1 1) rotate(0) translate(4 178.4011)">
<title>Dead State</title>
<polygon fill="#ffffff" stroke="transparent" points="-4,4 -4,-178.4011 95.9006,-178.4011 95.9006,4 -4,4"/>
<!-- q0 -->
<g id="node1" class="node">
<title>q0</title>
<ellipse fill="none" stroke="#000000" cx="22.9503" cy="-110.8509" rx="18.9093" ry="18.9093"/>
<ellipse fill="none" stroke="#000000" cx="22.9503" cy="-110.8509" rx="22.9007" ry="22.9007"/>
<text text-anchor="middle" x="22.9503" y="-106.6509" font-family="Times,serif" font-size="14.00" fill="#000000">q0</text>
</g>
<!-- q0&#45;&gt;q0 -->
<g id="edge1" class="edge">
<title>q0&#45;&gt;q0</title>
<path fill="none" stroke="#000000" d="M44.8581,-118.2025C55.021,-119.0045 63.9006,-116.554 63.9006,-110.8509 63.9006,-107.1973 60.2564,-104.8786 54.9652,-103.8947"/>
<polygon fill="#000000" stroke="#000000" points="54.9873,-100.393 44.8581,-103.4992 54.7135,-107.3876 54.9873,-100.393"/>
<text text-anchor="middle" x="67.4006" y="-106.6509" font-family="Times,serif" font-size="14.00" fill="#000000">0</text>
</g>
<!-- q1 -->
<g id="node2" class="node">
<title>q1</title>
<ellipse fill="none" stroke="#000000" cx="22.9503" cy="-18.9503" rx="18.9007" ry="18.9007"/>
<text text-anchor="middle" x="22.9503" y="-14.7503" font-family="Times,serif" font-size="14.00" fill="#000000">q1</text>
</g>
<!-- q0&#45;&gt;q1 -->
<g id="edge2" class="edge">
<title>q0&#45;&gt;q1</title>
<path fill="none" stroke="#000000" d="M22.9503,-87.6605C22.9503,-75.6964 22.9503,-60.9784 22.9503,-48.2374"/>
<polygon fill="#000000" stroke="#000000" points="26.4504,-48.1038 22.9503,-38.1038 19.4504,-48.1038 26.4504,-48.1038"/>
<text text-anchor="middle" x="26.4503" y="-58.7006" font-family="Times,serif" font-size="14.00" fill="#000000">1</text>
</g>
<!-- q1&#45;&gt;q1 -->
<g id="edge3" class="edge">
<title>q1&#45;&gt;q1</title>
<path fill="none" stroke="#000000" d="M41.5822,-22.7494C51.2163,-23.3338 59.9006,-22.0675 59.9006,-18.9503 59.9006,-17.002 56.5083,-15.7768 51.612,-15.2745"/>
<polygon fill="#000000" stroke="#000000" points="51.6245,-11.7745 41.5822,-15.1512 51.5384,-18.774 51.6245,-11.7745"/>
<text text-anchor="middle" x="63.4006" y="-14.7503" font-family="Times,serif" font-size="14.00" fill="#000000">0</text>
</g>
<!-- q1&#45;&gt;q1 -->
<g id="edge4" class="edge">
<title>q1&#45;&gt;q1</title>
<path fill="none" stroke="#000000" d="M40.9609,-25.2084C58.562,-28.6652 77.9006,-26.5792 77.9006,-18.9503 77.9006,-12.7518 65.1341,-10.2125 50.9058,-11.3323"/>
<polygon fill="#000000" stroke="#000000" points="50.3944,-7.8696 40.9609,-12.6922 51.3429,-14.805 50.3944,-7.8696"/>
<text text-anchor="middle" x="81.4006" y="-14.7503" font-family="Times,serif" font-size="14.00" fill="#000000">1</text>
</g>
<!-- start_point_xyza -->
<g id="node3" class="node">
<title>start_point_xyza</title>
<ellipse fill="#000000" stroke="#000000" cx="22.9503" cy="-172.6011" rx="1.8" ry="1.8"/>
</g>
<!-- start_point_xyza&#45;&gt;q0 -->
<g id="edge5" class="edge">
<title>start_point_xyza&#45;&gt;q0</title>
<path fill="none" stroke="#000000" d="M22.9503,-170.5466C22.9503,-166.1565 22.9503,-155.3423 22.9503,-144.1053"/>
<polygon fill="#000000" stroke="#000000" points="26.4504,-143.8389 22.9503,-133.8389 19.4504,-143.8389 26.4504,-143.8389"/>
</g>
</g>
</svg>
