<?xml version="1.0" encoding="UTF-8" standalone="no"?>
<!DOCTYPE svg PUBLIC "-//W3C//DTD SVG 1.1//EN"
 "http://www.w3.org/Graphics/SVG/1.1/DTD/svg11.dtd">
<!-- Generated by graphviz version 2.40.1 (20161225.0304)
 -->
<!-- Title: Minimal DFA Pages: 1 -->
<svg width="153pt" height="318pt"
 viewBox="0.00 0.00 152.75 317.60" xmlns="http://www.w3.org/2000/svg" xmlns:xlink="http://www.w3.org/1999/xlink">
<g id="graph0" class="graph" transform="scale(1 1) rotate(0) translate(4 313.6023)">
<title>Minimal DFA</title>
<polygon fill="#ffffff" stroke="transparent" points="-4,4 -4,-313.6023 148.7503,-313.6023 148.7503,4 -4,4"/>
<!-- q6 -->
<g id="node1" class="node">
<title>q6</title>
<ellipse fill="none" stroke="#000000" cx="75.8" cy="-290.652" rx="18.9007" ry="18.9007"/>
<text text-anchor="middle" x="75.8" y="-286.452" font-family="Times,serif" font-size="14.00" fill="#000000">q6</text>
</g>
<!-- q6&#45;&gt;q6 -->
<g id="edge7" class="edge">
<title>q6&#45;&gt;q6</title>
<path fill="none" stroke="#000000" d="M93.287,-298.0944C103.3669,-299.6133 112.7503,-297.1325 112.7503,-290.652 112.7503,-286.5004 108.8993,-283.9904 103.4813,-283.1217"/>
<polygon fill="#000000" stroke="#000000" points="103.2565,-279.6234 93.287,-283.2096 103.3169,-286.6232 103.2565,-279.6234"/>
<text text-anchor="middle" x="116.2503" y="-286.452" font-family="Times,serif" font-size="14.00" fill="#000000">b</text>
</g>
<!-- q0 -->
<g id="node4" class="node">
<title>q0</title>
<ellipse fill="none" stroke="#000000" cx="75.8" cy="-202.7514" rx="18.9007" ry="18.9007"/>
<text text-anchor="middle" x="75.8" y="-198.5514" font-family="Times,serif" font-size="14.00" fill="#000000">q0</text>
</g>
<!-- q6&#45;&gt;q0 -->
<g id="edge8" class="edge">
<title>q6&#45;&gt;q0</title>
<path fill="none" stroke="#000000" d="M75.8,-271.5789C75.8,-260.0602 75.8,-245.1423 75.8,-232.141"/>
<polygon fill="#000000" stroke="#000000" points="79.3001,-231.7873 75.8,-221.7873 72.3001,-231.7874 79.3001,-231.7873"/>
<text text-anchor="middle" x="78.9069" y="-242.5017" font-family="Times,serif" font-size="14.00" fill="#000000">a</text>
</g>
<!-- q2 -->
<g id="node2" class="node">
<title>q2</title>
<ellipse fill="none" stroke="#000000" cx="81.8" cy="-22.9503" rx="18.9093" ry="18.9093"/>
<ellipse fill="none" stroke="#000000" cx="81.8" cy="-22.9503" rx="22.9007" ry="22.9007"/>
<text text-anchor="middle" x="81.8" y="-18.7503" font-family="Times,serif" font-size="14.00" fill="#000000">q2</text>
</g>
<!-- q2&#45;&gt;q2 -->
<g id="edge10" class="edge">
<title>q2&#45;&gt;q2</title>
<path fill="none" stroke="#000000" d="M103.2894,-31.3647C113.6258,-32.4035 122.7503,-29.5987 122.7503,-22.9503 122.7503,-18.6911 119.0056,-16.0094 113.5965,-14.9051"/>
<polygon fill="#000000" stroke="#000000" points="113.4084,-11.3962 103.2894,-14.5359 113.1577,-18.3917 113.4084,-11.3962"/>
<text text-anchor="middle" x="125.8572" y="-18.7503" font-family="Times,serif" font-size="14.00" fill="#000000">a</text>
</g>
<!-- q2&#45;&gt;q0 -->
<g id="edge9" class="edge">
<title>q2&#45;&gt;q0</title>
<path fill="none" stroke="#000000" d="M81.0309,-45.9964C79.9478,-78.4539 77.9728,-137.6398 76.784,-173.2654"/>
<polygon fill="#000000" stroke="#000000" points="73.2777,-173.3984 76.4421,-183.5096 80.2738,-173.6319 73.2777,-173.3984"/>
<text text-anchor="middle" x="82.3" y="-110.6509" font-family="Times,serif" font-size="14.00" fill="#000000">b</text>
</g>
<!-- q5 -->
<g id="node3" class="node">
<title>q5</title>
<ellipse fill="none" stroke="#000000" cx="125.8" cy="-114.8509" rx="18.9007" ry="18.9007"/>
<text text-anchor="middle" x="125.8" y="-110.6509" font-family="Times,serif" font-size="14.00" fill="#000000">q5</text>
</g>
<!-- q5&#45;&gt;q6 -->
<g id="edge6" class="edge">
<title>q5&#45;&gt;q6</title>
<path fill="none" stroke="#000000" d="M122.9996,-133.6396C119.5435,-155.1851 112.9777,-191.4334 103.8,-221.7017 99.4811,-235.9455 93.379,-251.3327 87.9733,-263.9497"/>
<polygon fill="#000000" stroke="#000000" points="84.6404,-262.8355 83.8346,-273.3996 91.0524,-265.6437 84.6404,-262.8355"/>
<text text-anchor="middle" x="115.9069" y="-198.5514" font-family="Times,serif" font-size="14.00" fill="#000000">a</text>
</g>
<!-- q5&#45;&gt;q2 -->
<g id="edge5" class="edge">
<title>q5&#45;&gt;q2</title>
<path fill="none" stroke="#000000" d="M117.5239,-97.5651C111.5202,-85.0254 103.2461,-67.7437 96.1726,-52.9696"/>
<polygon fill="#000000" stroke="#000000" points="99.2089,-51.2062 91.7336,-43.6981 92.8952,-54.2291 99.2089,-51.2062"/>
<text text-anchor="middle" x="110.3" y="-66.7006" font-family="Times,serif" font-size="14.00" fill="#000000">b</text>
</g>
<!-- q0&#45;&gt;q5 -->
<g id="edge2" class="edge">
<title>q0&#45;&gt;q5</title>
<path fill="none" stroke="#000000" d="M85.2046,-186.218C92.4912,-173.4082 102.7206,-155.4247 111.0877,-140.7152"/>
<polygon fill="#000000" stroke="#000000" points="114.3655,-142.0317 116.2676,-131.609 108.2809,-138.5707 114.3655,-142.0317"/>
<text text-anchor="middle" x="105.9069" y="-154.6011" font-family="Times,serif" font-size="14.00" fill="#000000">a</text>
</g>
<!-- q1 -->
<g id="node5" class="node">
<title>q1</title>
<ellipse fill="none" stroke="#000000" cx="26.8" cy="-114.8509" rx="18.9007" ry="18.9007"/>
<text text-anchor="middle" x="26.8" y="-110.6509" font-family="Times,serif" font-size="14.00" fill="#000000">q1</text>
</g>
<!-- q0&#45;&gt;q1 -->
<g id="edge1" class="edge">
<title>q0&#45;&gt;q1</title>
<path fill="none" stroke="#000000" d="M66.3523,-185.8033C59.189,-172.9531 49.2228,-155.0749 41.0868,-140.4799"/>
<polygon fill="#000000" stroke="#000000" points="43.9787,-138.4792 36.0525,-131.4488 37.8645,-141.8876 43.9787,-138.4792"/>
<text text-anchor="middle" x="57.3" y="-154.6011" font-family="Times,serif" font-size="14.00" fill="#000000">b</text>
</g>
<!-- q1&#45;&gt;q6 -->
<g id="edge3" class="edge">
<title>q1&#45;&gt;q6</title>
<path fill="none" stroke="#000000" d="M27.3713,-134.1829C28.4601,-155.9124 31.622,-192.0318 40.8,-221.7017 45.5104,-236.9293 53.3805,-252.8639 60.4659,-265.574"/>
<polygon fill="#000000" stroke="#000000" points="57.6412,-267.6822 65.666,-274.5998 63.7066,-264.1877 57.6412,-267.6822"/>
<text text-anchor="middle" x="44.3" y="-198.5514" font-family="Times,serif" font-size="14.00" fill="#000000">b</text>
</g>
<!-- q1&#45;&gt;q2 -->
<g id="edge4" class="edge">
<title>q1&#45;&gt;q2</title>
<path fill="none" stroke="#000000" d="M36.6329,-98.4209C44.4333,-85.3871 55.5224,-66.858 64.7607,-51.4217"/>
<polygon fill="#000000" stroke="#000000" points="67.8152,-53.1333 69.9473,-42.7552 61.8087,-49.5386 67.8152,-53.1333"/>
<text text-anchor="middle" x="58.9069" y="-66.7006" font-family="Times,serif" font-size="14.00" fill="#000000">a</text>
</g>
<!-- start_point_xyza -->
<g id="node6" class="node">
<title>start_point_xyza</title>
<ellipse fill="#000000" stroke="#000000" cx="1.8" cy="-290.652" rx="1.8" ry="1.8"/>
</g>
<!-- start_point_xyza&#45;&gt;q0 -->
<g id="edge11" class="edge">
<title>start_point_xyza&#45;&gt;q0</title>
<path fill="none" stroke="#000000" d="M3.0844,-289.1263C9.3747,-281.6545 37.4087,-248.3543 56.771,-225.355"/>
<polygon fill="#000000" stroke="#000000" points="59.693,-227.3187 63.4557,-217.4145 54.3379,-222.8105 59.693,-227.3187"/>
</g>
</g>
</svg>
